<?xml version="1.0" encoding="UTF-8" standalone="no"?>
<!-- Created with Inkscape (http://www.inkscape.org/) -->

<svg
   width="143.23586mm"
   height="90.271591mm"
   viewBox="0 0 143.23586 90.271591"
   version="1.1"
   id="svg1"
   xml:space="preserve"
   inkscape:version="1.4 (e7c3feb1, 2024-10-09)"
   sodipodi:docname="ghost.svg"
   xmlns:inkscape="http://www.inkscape.org/namespaces/inkscape"
   xmlns:sodipodi="http://sodipodi.sourceforge.net/DTD/sodipodi-0.dtd"
   xmlns="http://www.w3.org/2000/svg"
   xmlns:svg="http://www.w3.org/2000/svg"><sodipodi:namedview
     id="namedview1"
     pagecolor="#ffffff"
     bordercolor="#999999"
     borderopacity="1"
     inkscape:showpageshadow="2"
     inkscape:pageopacity="0"
     inkscape:pagecheckerboard="true"
     inkscape:deskcolor="#d1d1d1"
     inkscape:document-units="mm"
     inkscape:zoom="0.84109829"
     inkscape:cx="118.89217"
     inkscape:cy="42.801181"
     inkscape:window-width="1920"
     inkscape:window-height="1027"
     inkscape:window-x="0"
     inkscape:window-y="124"
     inkscape:window-maximized="1"
     inkscape:current-layer="layer1" /><defs
     id="defs1" /><g
     inkscape:label="Layer 1"
     inkscape:groupmode="layer"
     id="layer1"
     transform="translate(-54.364141,-87.017944)"><g
       id="g58"><path
         id="path1"
         style="fill:#000000"
         d="m 80.977486,87.017944 c -1.9919,0 -2.661988,0.317065 -6.342248,3.003435 -1.724,1.25842 -3.328888,2.289849 -3.566708,2.291849 -0.23782,0.0022 -0.611126,0.117252 -0.829406,0.255282 -0.66554,0.42085 0.206698,1.022301 1.950268,1.344621 1.38994,0.25694 1.771779,0.214133 3.960999,-0.442867 1.33257,-0.39992 2.896706,-0.735591 3.475756,-0.745691 1.04802,-0.01835 1.055872,-0.011 1.719792,1.631425 0.92659,2.29225 1.405207,2.691464 3.597197,3.001884 2.45488,0.34765 2.662441,0.583718 2.245341,2.549198 l -0.328146,1.54564 -2.111499,0.72812 c -3.61977,1.24836 -7.035845,3.603 -9.073865,6.25388 -2.46343,3.20421 -3.573143,6.41614 -3.580143,10.36216 l -0.0036,2.27842 -1.701188,1.10019 c -4.38547,2.83614 -6.629562,9.24899 -4.594552,13.12891 1.12761,2.14988 3.329929,3.9463 5.692159,4.64365 l 1.116211,0.32969 -0.440283,0.74518 c -0.67482,1.14237 -3.129623,2.30189 -6.082833,2.87372 -6.59567,1.27714 -8.010647,2.46145 -8.541597,7.1484 -0.31706,2.79885 -0.628691,3.59278 -2.119251,5.39657 -0.58071,0.70274 -1.055749,1.50247 -1.055749,1.77767 0,0.3624 0.189773,0.50075 0.687813,0.50075 1.85894,0 3.112804,-1.36336 5.734534,-6.23476 1.95051,-3.62422 4.540933,-4.90343 10.070703,-4.97283 l 2.979146,-0.0372 1.707389,-1.10898 c 2.15143,-1.39743 2.881107,-1.66915 4.480347,-1.66915 0.78464,0 1.331649,-0.12857 1.407149,-0.33073 0.13813,-0.3698 0.204662,-0.21857 0.681612,1.54461 0.44001,1.62662 1.682918,3.14264 3.394108,4.14032 1.29237,0.7535 1.545789,1.02477 1.614889,1.72547 0.07028,0.71319 -0.06129,0.92262 -0.926042,1.47433 -1.94547,1.2412 -2.683232,2.47321 -2.216402,3.70107 0.53583,1.40933 2.819343,1.89828 5.078243,1.08727 0.63676,-0.22862 1.856626,-0.53111 2.710946,-0.67231 1.86189,-0.30771 3.200833,-0.95762 4.250903,-2.06292 0.64672,-0.68073 0.979665,-0.81773 1.984375,-0.81856 1.45492,-0.001 2.543946,-0.61173 3.734656,-2.09341 0.47769,-0.59442 1.08656,-1.08056 1.35341,-1.08056 0.26685,0 0.95002,-0.47952 1.51825,-1.06505 2.3787,-2.45109 2.04278,-6.65825 -0.78858,-9.87485 l -1.02784,-1.16788 1.78025,-1.01803 c 2.75363,-1.5744 5.76944,-4.75408 7.24917,-7.64398 0.67061,-1.30969 1.35246,-3.01566 1.51515,-3.79098 0.20581,-0.98076 0.61262,-1.78579 1.33687,-2.64583 1.03851,-1.23322 2.11307,-3.26216 2.12597,-4.01423 0.004,-0.22145 0.56175,-0.62527 1.26245,-0.91312 1.67572,-0.6884 6.86585,-5.83068 7.69049,-7.61969 1.17454,-2.54811 2.11865,-1.14596 2.32027,3.44578 0.0749,1.70642 0.19655,3.49596 0.26975,3.97702 0.19031,1.25087 0.94805,1.90376 2.21072,1.90376 1.3613,0 2.62495,-1.0801 3.48144,-2.97501 0.55697,-1.23223 0.63305,-1.81163 0.66715,-5.07824 0.0335,-3.21508 0.0994,-3.73198 0.51366,-4.0349 1.47401,-1.07782 2.45238,0.094 3.70003,4.43125 0.92122,3.20248 1.53755,4.62704 2.09393,4.84054 1.38851,0.53282 2.95042,-0.39432 3.66231,-2.17352 0.35237,-0.88065 0.55101,-1.04551 1.42937,-1.18597 1.70131,-0.27205 2.9757,-2.17222 2.9807,-4.44366 9.4e-4,-0.44179 0.23284,-0.8483 0.63303,-1.11052 1.38577,-0.90798 1.84282,-2.15178 1.96526,-5.35058 0.15392,-4.021157 -0.24893,-5.238849 -2.4474,-7.401099 -1.15121,-1.13225 -2.0741,-1.768064 -3.18223,-2.192114 -6.09688,-2.33315 -13.76232,-0.479356 -18.68103,4.517554 -1.62867,1.654559 -2.44177,2.992759 -3.43339,5.650819 -1.06569,2.85664 -2.24336,4.67066 -4.28811,6.60476 -2.66001,2.51606 -4.97638,3.54069 -6.08438,2.6908 -0.23714,-0.18191 -1.10197,-1.87855 -1.92185,-3.77032 -1.98491,-4.57994 -2.81474,-5.975 -4.59041,-7.71477 -2.05853,-2.01689 -3.24829,-2.649237 -5.82239,-3.095937 -1.21374,-0.21063 -2.311394,-0.48824 -2.439644,-0.6165 -0.12825,-0.12825 -0.400531,-1.19171 -0.605131,-2.36368 -0.41464,-2.37508 -0.830269,-3.338117 -1.902209,-4.410067 -1.04014,-1.04013 -1.720417,-1.123122 -4.884457,-0.595312 -3.73743,0.62346 -4.840098,0.441127 -6.078698,-1.005623 -2.51199,-2.93412 -2.723628,-3.084567 -4.342888,-3.084567 z m -0.173633,0.813904 h 5.17e-4 v 5.17e-4 c 0.59611,0.01562 1.162365,0.12393 1.5012,0.31936 0.30644,0.17674 1.084307,0.976266 1.728577,1.776636 1.97992,2.45962 3.144874,2.751957 7.799524,1.958537 2.37015,-0.40401 2.515653,-0.400815 3.331063,0.07545 1.19132,0.69577 1.777891,1.841743 2.210201,4.318083 0.20483,1.17326 0.488266,2.349601 0.629936,2.614311 0.18325,0.34241 0.928201,0.614725 2.581759,0.943095 1.27826,0.253853 2.6819,0.646013 3.1197,0.871263 1.22374,0.6296 3.53675,2.69506 4.35529,3.88917 0.85579,1.24845 3.98167,7.91101 3.98167,8.48682 0,0.29219 -0.33108,0.39119 -1.31103,0.39119 h -1.31103 l -0.15193,-0.99219 c -0.60023,-3.92308 -1.30646,-5.99496 -2.81275,-8.25066 -1.7403,-2.60611 -4.0487,-3.48331 -5.22655,-1.98592 -1.800328,2.28869 -1.04446,8.29837 1.57251,12.50156 0.80462,1.29234 0.98196,1.77817 0.78393,2.14819 -0.48056,0.89792 0.0393,0.77486 1.60921,-0.38086 2.06629,-1.52112 4.05258,-2.24724 6.12985,-2.24224 3.02133,0.008 4.72426,1.5714 4.72426,4.3372 0,1.77959 -0.64182,3.30481 -2.09909,4.98781 -0.68421,0.79019 -1.15147,1.62833 -1.25316,2.24896 -0.76984,4.69855 -4.47611,9.55213 -9.21804,12.07058 l -1.28829,0.68368 -1.649,-0.9219 c -3.335618,-1.86541 -4.753696,-2.07584 -14.428056,-2.13734 -8.99787,-0.0572 -11.329231,-0.24886 -11.131621,-0.91571 0.49996,-1.68717 -0.694488,-7.61594 -1.702738,-8.45271 -0.55165,-0.45783 -0.523241,0.0756 0.100769,1.88929 0.76569,2.22559 1.17028,5.01448 0.84956,5.85804 -0.24137,0.63486 -0.347087,0.68467 -0.958597,0.45217 -1.27753,-0.48572 -1.660628,-0.78063 -2.245858,-1.72755 -1.28168,-2.07381 -0.174271,-5.53506 2.394169,-7.48378 1.42456,-1.08129 1.624565,-1.44782 0.593245,-1.0883 -2.02811,0.707 -3.846916,3.08394 -4.320666,5.64668 -0.35262,1.90748 -0.04955,2.90305 1.278475,4.19923 2.03993,1.99101 4.417575,2.36349 15.407845,2.41639 8.51827,0.041 8.618229,0.0482 10.647929,0.73277 2.50041,0.84327 4.254254,1.93856 5.870964,3.66696 2.83517,3.03102 3.22372,6.63996 0.97461,9.05113 l -0.99115,1.06195 0.11317,-2.36265 c 0.0965,-2.01883 0.0265,-2.56267 -0.47904,-3.73776 -0.32538,-0.75638 -0.75514,-1.37511 -0.9555,-1.37511 -0.41051,0 -0.42932,0.1159 -0.0408,0.91003 0.0936,0.0724 0.17117,0.20505 0.20102,0.40411 6.4e-4,0.004 0.001,0.009 0.002,0.0139 0.002,0.003 0.005,0.007 0.007,0.0103 0.0648,0.1167 0.0195,0.0331 0.0935,0.14573 0.0414,0.0574 0.0666,0.12349 0.0847,0.1912 0.0152,0.0355 0.0386,0.095 0.046,0.11524 0.001,-0.001 0.009,0.02 0.0129,0.0279 0.0209,0.0412 0.0377,0.0832 0.0532,0.12661 0.019,0.0523 0.0293,0.10714 0.0393,0.16174 0.005,0.0302 0.009,0.0588 0.0109,0.0868 1.18914,3.52711 -0.6028,7.5186 -3.940843,8.23671 l -0.817004,0.17621 0.649056,-1.93011 c 0.51903,-1.54295 0.618574,-2.24787 0.496094,-3.5171 -0.0054,-0.0556 -0.01682,-0.10027 -0.02274,-0.15503 -7.3e-5,-5.1e-4 6.7e-5,-0.001 0,-0.002 -0.193741,-1.79145 -0.673662,-3.15071 -1.133781,-3.15071 -0.43687,0 -0.426975,0.17501 0.0925,1.69964 0.83973,2.46446 0.146572,5.48772 -1.753898,7.65224 -0.84585,0.96337 -3.155982,2.10948 -3.979602,1.97456 -0.45014,-0.0737 -0.408175,-0.21909 0.417545,-1.44694 0.641015,-0.95319 1.102273,-2.05966 1.369426,-3.15329 0.0022,-0.01 0.0051,-0.02 0.0088,-0.0295 l 5.17e-4,-5.2e-4 c 0.447129,-1.85507 0.328062,-3.66942 -0.454236,-4.63434 -0.72576,-0.89518 -0.923825,-0.41344 -0.396875,0.96635 0.491892,1.288 0.374293,2.83028 -0.13901,4.30258 -9.44e-4,0.0223 -0.0049,0.047 -0.01344,0.0739 -0.01202,0.0378 -0.02449,0.0752 -0.04134,0.1111 -0.0076,0.0144 -0.0164,0.0312 -0.0186,0.0382 -2.92e-4,0.004 6.09e-4,-6.4e-4 0,0.0145 0.0026,0.0301 -0.01059,0.0572 -0.01809,0.0853 -0.0032,0.008 -0.0039,0.0172 -0.0052,0.0264 -0.0027,0.0241 -0.01865,0.0511 -0.02325,0.0651 5.1e-4,-8e-4 -0.01065,0.0299 -0.02015,0.0501 -0.0045,0.0118 -0.01737,0.0359 -0.02377,0.0506 -0.01194,0.0262 -0.02696,0.0503 -0.03979,0.076 -0.01357,0.0283 -0.03296,0.0542 -0.04393,0.0837 -0.0011,0.003 -0.0025,0.005 -0.0036,0.008 -0.01559,0.0351 -0.02322,0.0721 -0.03927,0.10697 -0.002,0.008 -0.0038,0.0158 -0.0057,0.0238 -0.0048,0.0348 -0.02227,0.0652 -0.03514,0.0971 -0.01163,0.0248 -0.02697,0.0461 -0.04547,0.0661 -0.0096,0.0103 -0.01827,0.0181 -0.02584,0.0238 -0.0019,0.004 -0.0048,0.007 -0.0067,0.0114 -0.01371,0.0275 -0.02768,0.055 -0.04186,0.0822 -0.02922,0.0551 -0.06286,0.10752 -0.09767,0.15916 -0.745641,1.40115 -1.846498,2.63922 -3.212723,3.3445 v 5.2e-4 c -1.18314,0.61076 -2.318562,0.63803 -3.190503,0.11885 -0.06207,-0.0167 -0.12347,-0.0352 -0.185519,-0.0527 -0.0956,-0.027 -0.138996,-0.0832 -0.14056,-0.13435 -0.0047,-0.004 -0.01146,-0.005 -0.01602,-0.009 -0.02755,-0.0279 -0.05329,-0.0578 -0.07338,-0.0915 -0.59791,-0.52104 -0.643085,-0.67662 -0.373104,-1.26917 0.17139,-0.37617 0.82165,-1.05323 1.44539,-1.50482 1.17991,-0.85426 1.770454,-1.65587 1.786454,-2.42517 0.01782,-0.8562 -0.591657,-1.76382 -1.412317,-2.10375 -1.91394,-0.79277 -3.870048,-3.29632 -3.870048,-4.95319 0,-0.59072 -0.242737,-0.97044 -0.992187,-1.55081 -1.81194,-1.40319 -2.811261,-1.86026 -6.813021,-3.11815 -4.31687,-1.35694 -5.14875,-1.71271 -6.35,-2.7156 -2.11618,-1.76677 -3.021486,-4.19691 -2.517676,-6.75773 0.5666,-2.88002 1.245836,-4.26629 2.993616,-6.1097 1.09189,-1.15163 2.304502,-2.08501 3.625102,-2.79053 1.81235,-0.96828 1.909839,-1.06101 1.124479,-1.06401 l -0.859896,-0.004 v -1.90169 c 0,-4.32946 1.575672,-7.88942 5.019332,-11.33936 2.52021,-2.5248 5.029507,-3.96091 8.805147,-5.04 1.9761,-0.56478 2.653242,-1.03353 1.492932,-1.03353 -0.42399,0 -0.5139,-0.11084 -0.37517,-0.46302 0.10032,-0.25467 0.24546,-1.058338 0.32246,-1.785938 0.18386,-1.73817 -0.322125,-2.219147 -2.637565,-2.506307 -2.28476,-0.28335 -2.716763,-0.565428 -3.228743,-2.106848 -0.97292,-2.92918 -1.768786,-3.182356 -5.868376,-1.869136 -2.33675,0.74853 -4.03559,0.993569 -4.39508,0.634069 -0.19175,-0.19175 6.140962,-4.774324 7.103442,-5.140254 0.459035,-0.17452 1.084924,-0.251268 1.681034,-0.235645 z m 58.900277,6.183085 h 5.2e-4 0.001 c 2.32209,-0.102267 4.58749,0.28641 6.48695,1.179256 2.35682,1.10784 4.73483,4.213224 4.74183,6.192391 0.002,0.71155 -0.0593,0.67597 -1.4702,-0.84801 -1.5138,-1.635137 -4.11544,-3.202392 -5.31647,-3.202392 -0.72351,0 -0.82892,0.474879 -0.15606,0.702799 0.25466,0.08626 1.07239,0.425973 1.81746,0.754993 4.16161,1.83776 6.23433,6.48733 4.01732,9.01237 l -0.84594,0.96376 -1.02836,-2.16524 c -1.6399,-3.45368 -4.93364,-6.40877 -7.43882,-6.674009 -1.27281,-0.13477 -1.07346,0.487449 0.26406,0.824239 1.48493,0.37391 3.08234,1.42903 4.44263,2.9347 1.19171,1.31908 2.71894,4.39301 2.95072,5.93866 0.33262,2.21809 -0.85203,4.37648 -2.40192,4.37648 -0.53295,0 -0.63157,-0.19538 -0.89917,-1.78542 -0.56807,-3.37533 -2.74963,-6.70938 -5.01416,-7.6631 -1.36088,-0.57315 -1.6837,0.009 -0.37517,0.67696 1.29594,0.66114 2.76894,2.26774 3.62148,3.95015 0.80003,1.57879 1.31493,4.27334 1.08107,5.65753 -0.32277,1.91046 -2.14096,3.2846 -2.99103,2.26033 -0.074,-0.0892 -0.22189,-0.45184 -0.38706,-0.88935 -0.007,-0.0109 -0.0143,-0.0225 -0.0212,-0.0346 -0.0243,-0.0429 -0.0461,-0.0869 -0.0661,-0.13177 -2.2e-4,-4.9e-4 -3e-4,-0.001 -5.2e-4,-0.002 -0.0533,-0.0855 -0.10224,-0.17343 -0.13022,-0.2713 -0.004,-0.0117 -0.0106,-0.0357 -0.014,-0.0481 -1.9e-4,-3.3e-4 -3.2e-4,-7e-4 -5.1e-4,-0.001 -0.006,-0.0106 -0.0129,-0.021 -0.0191,-0.0315 -0.0314,-0.0549 -0.053,-0.11325 -0.0693,-0.17415 -0.01,-0.0427 -0.0151,-0.0865 -0.0181,-0.13022 1.9e-4,-0.007 -6.7e-4,-0.0137 -10e-4,-0.0222 -0.0168,-0.0377 -0.0261,-0.0777 -0.0331,-0.11834 3.3e-4,0.003 0.003,0.0144 5.2e-4,0.0114 -0.0232,-0.0373 -0.0271,-0.0979 -0.0351,-0.14005 -0.0191,-0.0454 -0.0292,-0.0942 -0.0398,-0.14211 -0.007,-0.0354 -0.0259,-0.0862 -0.0387,-0.14366 -0.013,-0.0364 -0.0234,-0.0736 -0.0336,-0.1111 -0.0229,-0.0726 -0.0456,-0.12675 -0.0682,-0.19999 -0.042,-0.13607 -0.0763,-0.23381 -0.1173,-0.36483 -0.005,-0.012 -0.01,-0.0242 -0.015,-0.0362 -0.0364,-0.0842 -0.0638,-0.17213 -0.0987,-0.25683 -0.0481,-0.12461 -0.0918,-0.25062 -0.13436,-0.37724 -0.03,-0.0971 -0.0157,-0.049 -0.0424,-0.14521 -0.0151,-0.0543 -0.0207,-0.10336 -0.0191,-0.14676 -0.76041,-2.33841 -1.34894,-3.7921 -1.85622,-4.52582 -0.0148,-0.0197 -0.0296,-0.0393 -0.0444,-0.0594 -0.004,-0.007 -0.008,-0.0138 -0.0119,-0.0207 -0.1233,-0.16804 -0.24382,-0.31113 -0.3607,-0.40308 -0.92336,-0.72626 -2.21544,-0.68722 -2.94504,0.0894 -0.34296,0.36508 -0.47915,0.72266 -0.55294,1.7601 0.007,0.0484 0.005,0.10671 -0.0109,0.17467 -0.001,0.006 -0.003,0.011 -0.004,0.0165 -0.0129,0.22357 -0.0277,0.49213 -0.0367,0.78548 0.002,0.0263 0.003,0.0527 0.004,0.0791 6.3e-4,0.0364 10e-4,0.0726 10e-4,0.10904 9e-5,0.0428 -2e-5,0.0859 0,0.12868 0.002,0.0526 -0.002,0.10344 -0.009,0.15554 -0.002,0.0151 -0.004,0.0281 -0.007,0.0398 -0.008,0.34454 -0.0178,0.61041 -0.0248,1.05058 -0.0552,3.44245 -0.10728,3.77794 -0.80822,5.20537 -0.47484,0.96701 -1.02737,1.66947 -1.50843,1.91823 -0.96005,0.49644 -1.31734,0.49226 -2.04898,-0.0196 -0.38119,-0.26701 -0.51375,-0.50443 -0.56275,-1.40456 -0.004,-0.009 -0.007,-0.0187 -0.0103,-0.0284 -0.0288,-0.0913 -0.0384,-0.18632 -0.0501,-0.28112 -0.0174,-0.14959 -0.0244,-0.29957 -0.0284,-0.45011 0.001,-0.13824 0.0131,-0.27639 0.0419,-0.41186 0.006,-0.0302 0.0123,-0.0607 0.0186,-0.091 -3e-4,-0.0697 -0.002,-0.10329 -0.003,-0.17725 -0.0104,-4.76529 -0.78674,-7.32668 -2.22054,-7.32668 -0.6994,0 -1.10491,0.42606 -2.13992,2.24896 -0.89865,1.58271 -4.89172,5.57499 -6.42907,6.42803 l -1.09502,0.60771 -0.16381,-0.74 c -0.34068,-1.53528 -0.68526,-2.42733 -1.05627,-2.73524 -0.56517,-0.46905 -0.47389,-0.69946 0.39842,-1.00355 1.27847,-0.44568 3.83211,-2.30724 5.03122,-3.668 1.51214,-1.71598 2.31892,-3.14948 3.30471,-5.87199 1.55036,-4.28169 3.82039,-6.748236 8.2765,-8.992216 2.12556,-1.070373 4.50432,-1.663742 6.82645,-1.766301 z m -36.87061,8.262027 c 0.18535,-0.005 0.37309,0.0375 0.55293,0.13178 0.44776,0.23472 0.44445,0.28319 -0.0506,0.97926 -0.28691,0.40294 -0.65859,1.27754 -0.8263,1.94356 -0.5361,2.12907 0.47464,6.69142 1.99005,8.98136 0.36539,0.55214 0.66456,1.05333 0.66456,1.11363 0,0.0603 -0.15601,0.16968 -0.34675,0.24288 -0.64351,0.24694 -2.62247,-3.41001 -3.22254,-5.9552 -0.4666,-1.97908 -0.51689,-5.0828 -0.1018,-6.27352 0.24829,-0.71223 0.78441,-1.14909 1.34049,-1.16375 z m -11.894368,1.88309 c -0.275294,0.003 -0.558987,0.0568 -0.864547,0.15555 -2.29818,0.74279 -2.921688,5.35611 -1.329118,9.83402 0.46338,1.3029 0.906337,2.57089 0.984437,2.8174 0.10301,0.32512 -0.111745,0.55406 -0.781865,0.83406 -1.84775,0.77204 -3.892269,3.07979 -3.892269,4.39301 0,0.29826 0.04807,0.5426 0.10697,0.5426 0.05887,0 0.462427,-0.6296 0.896587,-1.39888 2.02419,-3.58668 6.860464,-4.60522 10.851534,-2.28513 1.15596,0.67202 1.679499,0.63474 0.844909,-0.0594 -0.62416,-0.51945 -0.656391,-0.6735 -0.569991,-2.73678 0.05038,-1.2026 -0.05049,-2.88584 -0.224276,-3.74034 -0.46205,-2.27187 -2.107246,-5.60133 -3.403926,-6.88847 -1.04166,-1.034 -1.792563,-1.4773 -2.618445,-1.46761 z m -0.287321,0.80099 c 0.15419,-0.0181 0.317572,-0.0116 0.489376,0.0217 0.9204,0.1786 1.051348,0.58698 0.377238,1.17409 -0.48688,0.42404 -0.725541,1.00061 -0.919841,2.22363 -0.36979,2.32759 0.107777,5.04146 1.466577,8.33696 0.15231,0.36942 0.0554,0.46302 -0.479557,0.46302 -0.54914,0 -0.789787,-0.2515 -1.327567,-1.38906 -2.232235,-4.72177 -1.919079,-10.55869 0.393774,-10.83034 z m 18.589559,11.29336 c -1.10783,0 -1.27112,0.10146 -2.82515,1.75855 -2.79416,2.97945 -5.9899,4.18344 -11.121282,4.19044 -3.23523,0.004 -4.125433,0.30416 -4.958353,1.67019 -0.65528,1.07473 -0.681045,3.16563 -0.05478,4.41936 0.49506,0.99101 2.505734,2.49244 3.865914,2.88665 0.45625,0.13223 1.977088,0.25097 3.379638,0.26407 2.00051,0.0187 3.055403,-0.12186 4.894793,-0.65319 4.52666,-1.30756 8.33625,-3.66883 9.90224,-6.13813 0.67169,-1.05915 0.77721,-1.4805 0.77721,-3.10214 0,-3.23594 -1.50149,-5.2958 -3.86023,-5.2958 z m 0.262,0.67076 c 0.53834,0.0404 1.0782,0.32837 1.61283,0.863 1.93919,1.93923 1.91738,5.10198 -0.0491,7.11584 -0.54096,0.55399 -1.04849,1.0072 -1.12809,1.00666 -0.0796,-5.3e-4 -0.73608,-1.74065 -1.45883,-3.86695 l -1.31413,-3.86591 0.73329,-0.63097 c 0.52878,-0.45483 1.0657,-0.66206 1.60403,-0.62167 z m -3.04581,2.58486 c 0.0721,-0.0183 0.1208,-0.0152 0.1385,0.0134 0.0708,0.1145 0.68404,1.74122 1.36322,3.61477 l 1.23507,3.40651 -0.62632,0.50695 c -0.34433,0.27887 -1.42068,0.90757 -2.3921,1.39681 l -1.7663,0.88935 -1.11673,-3.36672 c -0.61433,-1.85176 -1.16423,-3.49541 -1.22163,-3.65249 -0.0574,-0.15707 0.40577,-0.51426 1.02888,-0.79375 0.62312,-0.27949 1.63557,-0.89073 2.24999,-1.35857 0.46082,-0.35087 0.89109,-0.60136 1.10742,-0.65629 z m -5.33559,2.91041 1.06092,3.00241 c 0.58342,1.65127 1.14057,3.26013 1.23817,3.57549 0.15821,0.51138 0.0203,0.61878 -1.27124,0.99425 -0.79649,0.23154 -2.157514,0.49541 -3.024624,0.58601 -1.39446,0.14575 -1.59373,0.10742 -1.72651,-0.33279 -0.26505,-0.8787 -1.494999,-6.51072 -1.494999,-6.84558 0,-0.20676 0.651711,-0.3835 1.807641,-0.49093 0.99415,-0.0924 2.168279,-0.24046 2.609142,-0.32866 z m -7.025408,0.44442 c 0.273158,-0.007 0.470715,0.017 0.5271,0.0734 0.11278,0.11277 0.610585,1.89939 1.105875,3.9703 1.03347,4.32114 1.092181,4.20265 -1.621089,3.26544 -2.33325,-0.80595 -3.496428,-2.25879 -3.496428,-4.36666 0,-1.62708 0.779757,-2.50858 2.504757,-2.83084 0.358055,-0.0669 0.706628,-0.1047 0.979785,-0.11162 z M 73.583105,140.5046 c 0.14594,-0.22995 5.13122,1.69453 6.31021,2.43603 l 1.319816,0.83044 -1.910995,0.14883 c -1.74354,0.1359 -2.078792,0.26344 -3.823022,1.45521 l -1.912028,1.30638 -2.920752,0.0253 c -6.16254,0.0533 -8.529979,1.44656 -11.387419,6.7014 -0.7276,1.33807 -1.646919,2.82731 -2.042769,3.30987 -0.66378,0.80917 -1.793689,1.41705 -1.793689,0.9648 0,-0.10653 0.309086,-0.4823 0.687296,-0.83509 1.11681,-1.04175 1.921708,-2.92065 2.103748,-4.91184 0.4358,-4.76698 1.605068,-5.85669 7.624858,-7.105 4.3318,-0.89827 6.248526,-1.96873 7.744746,-4.32635 z" /><path
         id="path2"
         style="fill:#000000"
         d="m 137.78487,108.54945 v 5.1e-4 5.2e-4 l 10e-4,0.001 v 5.2e-4 l 5.2e-4,5.2e-4 -0.002,5.1e-4 c -1.44843,0.0219 -2.60065,0.54379 -3.82353,1.82211 -0.005,0.0161 -0.009,0.0324 -0.0134,0.0486 -0.008,0.0293 -0.0115,0.0593 -0.0155,0.0894 -0.001,0.0179 -0.003,0.0357 -0.003,0.0537 -4.6e-4,0.0297 -4.5e-4,0.0596 -5.2e-4,0.0894 -8e-5,0.042 1e-5,0.0842 0,0.1261 0.002,0.003 0.002,0.0129 5.2e-4,0.0227 0.002,-0.005 0.007,0.0231 0.009,0.0331 0.001,0.005 0.003,0.01 0.004,0.015 0.18057,-0.23018 0.36471,-0.46592 0.45682,-0.55035 1.02756,-0.94196 2.50617,-1.41256 3.74861,-1.34462 -0.007,-0.009 -0.0154,-0.0209 -0.0465,-0.0667 0.0332,0.0475 0.0521,0.0518 -0.0351,-0.045 -0.003,-0.006 -0.005,-0.009 -0.005,-0.0109 -0.004,-0.005 -0.006,-0.008 -0.0155,-0.0207 -0.0145,-0.0252 -0.0165,-0.029 -0.0232,-0.0408 -0.02,-0.0199 -0.0508,-0.0504 -0.0553,-0.062 -0.0271,-0.0339 -0.0517,-0.068 -0.0775,-0.10284 -0.0114,-0.0186 -0.0218,-0.0377 -0.032,-0.0568 -0.0241,-8.3e-4 -0.0469,-0.003 -0.0724,-0.003 z m 0.23978,0.22737 c 1.4e-4,2.4e-4 0.009,0.0143 0.005,0.008 0.004,0.003 0.007,0.005 0.008,0.006 -0.002,-0.002 -0.006,-0.008 -0.0129,-0.014 z m 2.1394,4.06125 v 5.2e-4 c -0.002,0.007 -0.003,0.0135 -0.005,0.0202 0.008,-9.7e-4 0.0158,-0.002 0.0238,-0.003 -0.006,-0.006 -0.0124,-0.0117 -0.0186,-0.0176 z m -0.24856,0.83406 c -0.0339,0.1073 -0.0663,0.21261 -0.10697,0.32815 -1.53974,4.36283 -6.11206,9.76205 -17.10748,20.20186 -8.18085,7.76745 -11.42637,10.66089 -17.43873,15.54789 -5.715281,4.64547 -7.550128,5.95344 -10.215398,7.27966 -2.39413,1.19131 -3.361488,1.4773 -7.344772,2.17093 h -5.16e-4 c -3.007606,0.52374 -3.608685,0.55964 -4.609538,0.27595 -0.83855,-0.23768 -0.253156,-0.78698 2.299601,-2.23656 -0.02152,-0.006 -0.04299,-0.0125 -0.0646,-0.0186 -0.09592,-0.0271 -0.139277,-0.0835 -0.140559,-0.13487 -0.0047,-0.004 -0.01146,-0.005 -0.01602,-0.009 -0.01587,-0.0161 -0.03107,-0.0319 -0.04496,-0.0496 -1.155592,0.68082 -2.15964,1.30268 -2.41949,1.54926 -1.263495,1.19896 -0.80316,2.13164 1.213879,2.46135 0.605869,0.099 1.398881,0.19574 1.762683,0.21394 1.154543,0.0577 7.04505,-0.9981 8.37675,-1.5012 l 1.280542,-0.48266 0.794267,0.90072 c 1.4714,1.67047 4.310261,1.33366 5.554701,-0.65939 0.65241,-1.04489 1.56795,-1.13688 2.28255,-0.22841 0.64685,0.82234 2.10377,1.30646 3.20962,1.06505 1.03229,-0.22536 2.8593,-1.43978 3.61735,-2.40347 1.50368,-1.91162 -0.16707,-5.06851 -2.81584,-5.32112 -1.12112,-0.10692 -1.42287,-0.0119 -2.6479,0.83199 -1.29692,0.89336 -2.20365,1.2068 -2.17765,0.75344 0.006,-0.10914 1.63274,-1.50709 3.61477,-3.10782 4.93199,-3.9832 9.04865,-7.62755 15.29105,-13.53664 2.91042,-2.75502 6.13646,-5.80496 7.16856,-6.77633 l 1.87637,-1.7663 1.02371,0.52193 c 1.17277,0.59791 1.68533,0.63483 3.15485,0.22686 0.94896,-0.26345 2.80262,-1.77568 3.07371,-2.50734 0.0589,-0.15883 0.47769,-0.36097 0.93018,-0.44907 0.67924,-0.13224 0.87967,-0.0529 1.15083,0.45372 0.56409,1.05401 2.26533,1.82926 3.61063,1.64486 2.45814,-0.33692 5.20059,-2.43284 5.53817,-4.2323 0.38759,-2.06608 -0.83905,-4.254 -2.83187,-5.05137 -1.51211,-0.60503 -2.77219,-0.34105 -4.59145,0.9617 -1.42687,1.02176 -1.54725,1.05799 -2.92179,0.88625 l -1.4335,-0.1788 1.08003,-1.59112 c 0.84979,-1.25134 1.46066,-2.42654 1.88774,-3.53725 -0.0224,-0.0402 -0.0428,-0.0811 -0.0615,-0.12299 -2.2e-4,-4.9e-4 -3e-4,-10e-4 -5.2e-4,-0.002 -0.0533,-0.0855 -0.10224,-0.17343 -0.13022,-0.2713 -0.004,-0.0117 -0.0106,-0.0357 -0.014,-0.0481 -1.9e-4,-3.3e-4 -3.2e-4,-7e-4 -5.1e-4,-0.001 -0.006,-0.0106 -0.0129,-0.021 -0.0191,-0.0315 -0.0314,-0.0549 -0.053,-0.11325 -0.0693,-0.17415 -0.01,-0.0427 -0.0151,-0.0865 -0.0181,-0.13022 1.9e-4,-0.007 -6.7e-4,-0.0137 -0.001,-0.0222 -0.0168,-0.0377 -0.0261,-0.0777 -0.0331,-0.11834 3.3e-4,0.003 0.003,0.0144 5.2e-4,0.0114 -0.0232,-0.0373 -0.0271,-0.0979 -0.0351,-0.14005 -0.0191,-0.0454 -0.0292,-0.0942 -0.0398,-0.14211 -0.007,-0.0354 -0.0259,-0.0862 -0.0387,-0.14366 -0.0213,-0.0598 -0.037,-0.12205 -0.0532,-0.18345 -0.0215,-0.0902 -0.0481,-0.17905 -0.0786,-0.26665 -0.0298,-0.0889 -0.0656,-0.1758 -0.10231,-0.262 -0.0364,-0.0842 -0.0638,-0.17213 -0.0987,-0.25683 -0.0245,-0.0635 -0.0476,-0.12762 -0.0703,-0.19172 z m -10.99881,3.73672 c -0.25413,0.34164 -0.51271,0.69995 -0.74414,0.98909 -2.40676,3.00689 -13.21665,14.40398 -16.16439,17.04237 -1.08824,0.97404 -4.54865,4.13634 -7.7649,7.09104 0.004,0.008 0.008,0.0162 0.005,0.0119 0.002,0.004 0.005,0.008 0.007,0.0119 0.003,0.006 0.005,0.0143 0.007,0.0196 1e-4,3.3e-4 4.2e-4,0.001 5.2e-4,0.001 v 5.2e-4 5.2e-4 c 2.6e-4,8.4e-4 7.4e-4,0.001 5.1e-4,0.001 -9e-4,-0.002 -2.1e-4,-0.001 0,-0.001 0.006,0.008 0.0113,0.0156 0.0145,0.0248 8.9e-4,0.002 10e-4,0.004 0.002,0.005 0.005,0.009 0.013,0.0244 0.0165,0.0315 4e-4,8.1e-4 -10e-4,0.003 0.002,0.003 0.005,0.007 0.01,0.0154 0.0124,0.0243 1.2e-4,4.5e-4 5.1e-4,0.001 5.2e-4,0.002 -8.2e-4,-0.001 0.001,-0.001 -0.002,-0.002 9.2e-4,0.001 -0.001,0.003 0.003,0.005 h 5.2e-4 c 0.002,0.003 0.005,0.008 0.005,0.008 0.002,0.004 0.004,0.007 0.005,0.0114 v 5.2e-4 c 3.8e-4,4.3e-4 10e-4,-9.4e-4 10e-4,0.002 2.1e-4,6.2e-4 0.001,5.5e-4 0.001,0.002 0.002,0.003 0.005,0.005 0.007,0.008 0.003,0.006 0.003,0.006 0.005,0.0103 -4.8e-4,-6.5e-4 -1.4e-4,7.5e-4 5.2e-4,10e-4 5.9e-4,9.1e-4 0.002,0.002 0.004,0.005 0.002,0.003 0.0151,0.0219 0.016,0.0258 v 5.2e-4 c -0.0111,-0.0136 -7.3e-4,3.3e-4 0.008,0.0124 2.3e-4,3.3e-4 2.9e-4,0.001 5.2e-4,0.001 l 5.2e-4,5.2e-4 c 8.7e-4,0.001 0.002,0.003 0.003,0.004 0.002,-0.002 0.007,0.004 0.0129,0.0124 -0.002,-0.001 -0.005,-0.003 -0.008,-0.004 6e-4,9.7e-4 0.001,0.002 0.002,0.003 0.002,4.4e-4 0.006,0.003 0.008,0.005 0,-5e-4 4e-5,-10e-4 0,-0.002 5.8e-4,7.9e-4 5.5e-4,0.002 0.002,0.003 v 5.2e-4 c 0.0165,0.0118 0.0181,0.0151 0.0248,0.0279 5.65556,-5.18659 11.82524,-11.013 14.49989,-13.79295 5.30492,-5.51376 7.93565,-8.3855 10.02729,-11.08873 -0.0144,-0.13725 -0.0206,-0.27484 -0.0243,-0.4129 2.7e-4,-0.035 -0.001,-0.0703 0.003,-0.10542 z m 1.29501,4.24057 c -0.27764,-0.0108 -0.87333,0.47911 -0.87333,0.77515 0,0.1277 0.10484,0.23203 0.23254,0.23203 0.33834,0 0.93011,-0.77781 0.73794,-0.96997 -0.024,-0.024 -0.0575,-0.0357 -0.0971,-0.0372 z m 1.94768,0.0202 c -0.0739,0.007 -0.20623,0.11422 -0.43976,0.32556 -0.29104,0.26339 -0.52917,0.5835 -0.52917,0.71158 0,0.1281 0.23813,0.10466 0.52917,-0.0501 0.29105,-0.15576 0.52917,-0.47587 0.52917,-0.71159 0,-0.18914 -0.0155,-0.28246 -0.0894,-0.27543 z m 6.20118,0.077 c 0.18929,0.002 0.40516,0.016 0.6537,0.0408 l 1.34152,0.13384 -0.41547,0.88832 c -0.31395,0.67162 -0.57634,0.88363 -1.07642,0.87023 -1.82352,-0.0489 -2.58807,-0.78752 -1.66347,-1.60714 0.26284,-0.23301 0.59225,-0.33256 1.16014,-0.32608 z m 6.98562,0.64544 c 1.22581,0 1.63356,1.51182 0.60254,2.23397 -0.68385,0.47899 -0.71912,0.48229 -1.33066,0.1261 -0.53187,-0.30979 -0.62111,-1.56636 -0.14521,-2.04226 0.17463,-0.17463 0.56773,-0.31781 0.87333,-0.31781 z m -9.07232,0.97462 c 0.15154,-0.026 0.34033,0.0572 0.67438,0.23151 0.39856,0.20791 1.15929,0.37892 1.69034,0.37982 0.95232,0.002 0.96686,0.0178 1.05936,1.18133 l 0.094,1.17977 -1.32395,0.13487 c -0.72818,0.0742 -1.97878,0.19901 -2.77915,0.27751 -0.80036,0.0785 -1.6309,0.0289 -1.84537,-0.11007 -0.32956,-0.21364 -0.29183,-0.35728 0.24443,-0.92811 0.34898,-0.37146 0.79255,-0.67541 0.98547,-0.67541 0.19291,0 0.35088,-0.15207 0.35088,-0.33797 0,-0.18591 0.17956,-0.59504 0.39946,-0.90899 0.18431,-0.26313 0.29857,-0.39828 0.4501,-0.42426 z m -6.84919,1.19011 c -0.27436,-0.0492 -0.85515,0.29984 -0.9834,0.63407 -0.0795,0.20703 -0.0376,0.3762 0.093,0.3762 0.29555,0 1.13303,-0.81776 0.98702,-0.96376 -0.0245,-0.0245 -0.0574,-0.0395 -0.0966,-0.0465 z m -2.31614,0.0677 c -0.082,-0.009 -0.21474,0.0411 -0.41599,0.14883 -0.29104,0.15576 -0.52917,0.45844 -0.52917,0.67283 0,0.32354 0.0899,0.33522 0.52917,0.0594 0.29104,-0.18176 0.52916,-0.48443 0.52916,-0.67283 0,-0.13026 -0.0312,-0.19907 -0.11317,-0.20826 z m -23.10092,18.14102 -0.007,0.007 c 0.002,-1.6e-4 0.004,-3.7e-4 0.006,-5.1e-4 3.8e-4,-0.002 10e-4,-0.004 10e-4,-0.006 z m 0.36949,0.0114 c 0.003,0.004 0.004,0.006 0.005,0.004 -0.002,-0.001 -0.003,-0.003 -0.005,-0.004 z m 0.0119,0.009 c 0.0108,0.0153 0.0198,0.0303 0.0108,0.0119 -0.004,-0.005 -0.007,-0.007 -0.0108,-0.0119 z m -0.47284,0.46974 -5.2e-4,5.1e-4 c -0.002,0.005 -0.005,0.0105 -0.007,0.0155 0.004,-0.003 0.008,-0.007 0.0124,-0.0103 -0.001,-0.002 -0.003,-0.003 -0.004,-0.005 z m -1.62006,1.05109 c -0.16595,0.15072 -0.35871,0.32644 -0.52503,0.47749 0.006,0.009 0.0121,0.0137 0.0517,0.0739 0.0414,0.0574 0.0664,0.12298 0.0847,0.19069 0.005,0.012 0.0115,0.0284 0.0176,0.0434 0.17379,-0.15768 0.3633,-0.33523 0.54209,-0.49868 -0.006,-0.009 -0.0121,-0.0178 -0.017,-0.0279 0.007,0.007 -0.0159,-0.0224 -0.016,-0.0274 -0.002,-0.003 -0.01,-0.0177 -0.014,-0.0248 h -5.1e-4 c -0.001,-0.002 -0.003,-0.003 -0.003,-0.004 -0.0105,-0.0145 -0.014,-0.0201 -0.0145,-0.0212 -0.004,-0.005 -0.008,-0.0112 -0.0119,-0.0176 -0.008,-0.0118 -0.0125,-0.0191 -0.0145,-0.0227 -0.004,-0.005 -0.007,-0.009 -0.0103,-0.0129 -0.0113,-0.0156 0.002,6.4e-4 -0.0202,-0.0248 -0.008,-0.009 -0.0233,-0.0285 -0.0191,-0.0341 -0.003,-0.005 -0.005,-0.009 -0.007,-0.0103 -0.002,-0.007 -0.004,-0.0146 -0.007,-0.0212 h 5.2e-4 c -8.1e-4,-0.002 -0.002,-0.003 -0.003,-0.005 3.7e-4,-0.001 -5.2e-4,-2.7e-4 -5.2e-4,-0.002 v -5.1e-4 c -0.005,-0.01 -0.009,-0.0198 -0.0129,-0.03 z m -1.61282,1.50534 v 5.2e-4 5.1e-4 c 0.001,0.001 0.005,0.004 0.008,0.006 6.2e-4,-5.8e-4 -9.3e-4,-0.001 0.002,-0.002 -0.003,-0.002 -0.006,-0.003 -0.009,-0.005 -0.002,-9.5e-4 -0.002,-10e-4 -0.001,0 z m -2.286682,2.04845 c -0.0084,4.6e-4 -0.01521,0.004 -0.01964,0.0124 0.0081,-0.001 0.01604,-0.002 0.02325,-0.004 -5.64e-4,-0.002 -0.001,-0.005 -0.0015,-0.007 -6.69e-4,0 -0.0014,-4e-5 -0.0021,0 z m -0.02274,0.004 c -0.252329,0.22534 -0.460134,0.40229 -0.675927,0.58808 v 0.0424 c 0.0027,0.006 0.0053,0.0127 0.0078,0.0191 0.01033,0.0258 0.01772,0.053 0.01602,0.0811 v 0.0351 0.0346 0.0315 0.0351 0.0362 0.0351 0.0367 0.0264 c 0.229718,-0.20138 0.448464,-0.3914 0.697632,-0.61237 -0.003,-0.0235 -0.0055,-0.0471 -0.0067,-0.0708 -0.0037,-0.0414 -0.01,-0.0825 -0.01137,-0.12403 -0.0012,-0.0271 -0.003,-0.0545 -0.0083,-0.0811 -0.004,-0.0187 -0.0072,-0.0368 -0.0098,-0.0558 -0.0036,-0.0174 -0.0076,-0.0274 -0.0093,-0.0336 -3.5e-4,-6e-5 -0.001,6e-5 -0.001,0 -3.2e-5,0 2.4e-5,-10e-4 0,-0.002 -6.2e-5,0 -4.7e-5,-0.001 0,-0.002 -6.6e-5,-5.1e-4 -1.1e-5,0.001 0,-0.002 -7.5e-5,-0.004 -5.01e-4,-0.009 -5.17e-4,-0.0103 5.34e-4,-7e-5 10e-4,7e-5 10e-4,0 1.08e-4,-0.002 4.09e-4,-0.004 5.16e-4,-0.007 z m -4.930448,4.09949 c -0.334873,0.24826 -0.66853,0.47438 -1.00304,0.70125 -0.0087,0.0258 -0.01837,0.0512 -0.02997,0.076 -0.0076,0.0144 -0.0164,0.0316 -0.0186,0.0388 -2.92e-4,0.004 6.09e-4,1.7e-4 0,0.0155 0.0026,0.0301 -0.01059,0.0577 -0.01809,0.0858 -0.0032,0.008 -0.0039,0.0182 -0.0052,0.0274 -0.0027,0.0241 -0.01865,0.0506 -0.02325,0.0646 5.1e-4,-8e-4 -0.01065,0.0294 -0.02015,0.0496 -0.0045,0.0118 -0.01737,0.0375 -0.02377,0.0522 -0.01194,0.0262 -0.02696,0.0503 -0.03979,0.076 -0.0039,0.008 -0.0079,0.0164 -0.0124,0.0243 0.365468,-0.2402 0.734622,-0.48043 1.070218,-0.72037 8.4e-4,-0.004 0.0011,-0.007 0.0021,-0.0103 3.8e-4,-0.004 10e-4,-0.007 10e-4,-0.0103 0.0036,-0.0272 0.0092,-0.0544 0.01912,-0.0801 5.01e-4,-0.001 0.0011,-0.002 0.0016,-0.004 0.0016,-0.006 0.003,-0.0121 0.0047,-0.0186 0.0095,-0.0296 0.01882,-0.0593 0.02842,-0.0889 0.0056,-0.0228 0.01109,-0.0452 0.01809,-0.0682 -2.41e-4,0.003 -8.86e-4,0.0123 -5.16e-4,0.0103 0.003,-0.0262 0.0046,-0.0523 0.01344,-0.0775 0.002,-0.006 0.0058,-0.017 0.0088,-0.0248 8.28e-4,-0.0104 0.0019,-0.0208 0.0036,-0.031 0.0048,-0.0223 0.01101,-0.0444 0.0217,-0.0646 8.1e-5,-0.001 -7.7e-5,-0.002 0,-0.003 6.22e-4,-0.004 0.0013,-0.009 0.0021,-0.0129 z m 3.318144,0.44855 c 3.42e-4,0.003 0.001,0.005 0.001,0.008 4.13e-4,0.003 4.76e-4,-0.005 -5.17e-4,-0.007 -1.46e-4,-3.4e-4 -3.74e-4,-0.001 -5.16e-4,-0.001 z m 1.604036,0.64854 c -0.0013,10e-4 -0.0024,0.003 -0.0036,0.004 0.0016,-7.1e-4 0.0027,-0.002 0.0041,-0.003 -5.9e-5,-2.8e-4 -4.1e-4,-10e-4 -5.17e-4,-10e-4 z m -7.418152,0.94878 c -8.67e-4,4e-4 -0.0017,10e-4 -0.0026,0.002 -0.004,0.007 -0.0083,0.0138 -0.0124,0.0207 0.0068,-0.004 0.01458,-0.009 0.0217,-0.0129 -0.0024,-0.003 -0.0044,-0.006 -0.0067,-0.009 z m 12.074202,0.66094 c 0.58757,0 0.61556,0.0555 0.33951,0.66146 -0.25102,0.55071 -0.48211,0.65967 -1.38338,0.65267 l -1.08158,-0.008 0.74207,-0.65319 c 0.4083,-0.3592 1.03082,-0.65319 1.38338,-0.65319 z m 4.75733,0.66146 c 0.70152,0 0.78962,0.089 0.78962,0.79375 0,0.66963 -0.11354,0.80667 -0.72864,0.87747 -0.77355,0.089 -1.10888,-0.33449 -0.94361,-1.1927 0.0644,-0.3342 0.33076,-0.47852 0.88263,-0.47852 z m -6.38566,0.86248 c 0.14158,0.003 0.28525,0.0146 0.4284,0.0341 1.15108,0.15683 1.19339,0.19521 1.27279,1.15445 0.0777,0.93829 0.0407,0.99219 -0.68833,0.99219 -0.424,0 -1.5028,0.0765 -2.39727,0.17001 -1.517033,0.15858 -1.626773,0.13313 -1.626773,-0.37155 0,-0.36937 0.265898,-0.63285 0.837158,-0.83199 0.46016,-0.16042 0.758408,-0.36969 0.663008,-0.46509 -0.353211,-0.3532 0.519977,-0.70403 1.511017,-0.68161 z" /><g
         id="g57"><text
           xml:space="preserve"
           style="font-size:14.6735px;font-family:'PT Mono';-inkscape-font-specification:'PT Mono, Normal';text-align:start;writing-mode:lr-tb;direction:ltr;text-anchor:start;fill:#b22828;fill-opacity:0;stroke:#000000;stroke-width:0.691505;stroke-dasharray:none;stroke-opacity:1"
           x="83.835808"
           y="151.51854"
           id="text56"
           inkscape:label="text56"
           transform="scale(0.85730406,1.1664473)"><tspan
             sodipodi:role="line"
             id="tspan56"
             style="fill:#b22828;fill-opacity:0;stroke:#000000;stroke-width:0.691505;stroke-dasharray:none;stroke-opacity:1"
             x="83.835808"
             y="151.51854">L TRAIN SKATE CO.</tspan></text></g></g></g></svg>
